<svg xmlns="http://www.w3.org/2000/svg" version="1.1" xmlns:xlink="http://www.w3.org/1999/xlink" xmlns:svgjs="http://svgjs.dev/svgjs" width="1500" height="295" viewBox="0 0 1500 295"><g transform="matrix(1,0,0,1,-0.9090909090909918,-1.5932008446323493)"><svg viewBox="0 0 396 78" data-background-color="#ffffff" preserveAspectRatio="xMidYMid meet" height="295" width="1500" xmlns="http://www.w3.org/2000/svg" xmlns:xlink="http://www.w3.org/1999/xlink"><g id="tight-bounds" transform="matrix(1,0,0,1,0.2400000000000091,0.4212531046824495)"><svg viewBox="0 0 395.52 77.15749379063509" height="77.15749379063509" width="395.52"><g><svg viewBox="0 0 513.6562688900622 100.20335350274514" height="77.15749379063509" width="395.52"><g transform="matrix(1,0,0,1,118.13626889006221,17.892147406522618)"><svg viewBox="0 0 395.5199999999999 64.41905868969991" height="64.41905868969991" width="395.5199999999999"><g id="textblocktransform"><svg viewBox="0 0 395.5199999999999 64.41905868969991" height="64.41905868969991" width="395.5199999999999" id="textblock"><g><rect width="150.5618805749312" height="3.4251868389775613" y="53.970781551656664" fill="#9da27e" data-fill-palette-color="tertiary"></rect><rect width="150.5618805749312" height="3.4251868389775613" y="53.970781551656664" x="244.95811942506873" fill="#9da27e" data-fill-palette-color="tertiary"></rect></g><g><svg viewBox="0 0 395.5199999999999 37.981233558932445" height="37.981233558932445" width="395.5199999999999"><g transform="matrix(1,0,0,1,0,0)"><svg width="395.5199999999999" viewBox="4.93 -36.23 382.34 36.72" height="37.981233558932445" data-palette-color="#9da27e"><path d="M4.93-29.13L4.93-32.93 25.02-32.93 25.02-29.13 17.31-29.13 17.31-3.81 25.02-3.81 25.02 0 4.93 0 4.93-3.81 12.65-3.81 12.65-29.13 4.93-29.13ZM55.61 0L51.19 0 51.19-16.97Q51.19-20.29 49.91-21.9 48.63-23.51 45.82-23.51L45.82-23.51Q42.8-23.51 40.85-21.3 38.91-19.09 38.91-15.31L38.91-15.31 38.91 0 34.52 0 34.52-20.78Q34.52-25.39 34.37-26.42L34.37-26.42 38.52-26.42Q38.55-26.29 38.57-25.76 38.6-25.22 38.63-24.52 38.67-23.83 38.72-21.9L38.72-21.9 38.79-21.9Q41.35-26.9 47.24-26.9L47.24-26.9Q51.46-26.9 53.54-24.62 55.61-22.34 55.61-17.6L55.61-17.6 55.61 0ZM68.75-22.95L64.64-22.95 64.64-26.42 68.79-26.42 70.21-33.3 73.14-33.3 73.14-26.42 83.69-26.42 83.69-22.95 73.14-22.95 73.14-7.03Q73.14-5.1 74.18-4.17 75.21-3.25 77.58-3.25L77.58-3.25Q80.85-3.25 84.83-4.08L84.83-4.08 84.83-0.73Q80.71 0.39 76.66 0.39L76.66 0.39Q72.7 0.39 70.72-1.28 68.75-2.95 68.75-6.57L68.75-6.57 68.75-22.95ZM116.72-12.28L97.87-12.28Q97.87-7.84 99.83-5.32 101.8-2.81 105.22-2.81L105.22-2.81Q107.73-2.81 109.62-3.89 111.52-4.98 112.15-6.86L112.15-6.86 116.01-5.76Q114.93-2.73 112.07-1.12 109.2 0.49 105.22 0.49L105.22 0.49Q99.46 0.49 96.35-3.1 93.25-6.69 93.25-13.38L93.25-13.38Q93.25-19.9 96.29-23.4 99.33-26.9 105.07-26.9L105.07-26.9Q110.81-26.9 113.76-23.41 116.72-19.92 116.72-12.87L116.72-12.87 116.72-12.28ZM105.12-23.66L105.12-23.66Q101.85-23.66 99.94-21.52 98.04-19.38 97.92-15.65L97.92-15.65 112.18-15.65Q111.49-23.66 105.12-23.66ZM145.89-7.54L145.89-7.54Q145.89-3.78 143.04-1.65 140.2 0.49 135.17 0.49L135.17 0.49Q130.14 0.49 127.52-1.09 124.89-2.66 124.09-6.05L124.09-6.05 127.97-6.81Q128.43-4.71 129.96-3.75 131.48-2.78 135.17-2.78L135.17-2.78Q141.76-2.78 141.76-6.96L141.76-6.96Q141.76-8.52 140.57-9.48 139.37-10.45 136.9-11.06L136.9-11.06Q130.46-12.65 128.73-13.55 126.99-14.45 126.06-15.81 125.14-17.16 125.14-19.19L125.14-19.19Q125.14-22.78 127.72-24.8 130.31-26.83 135.22-26.83L135.22-26.83Q139.52-26.83 142.08-25.21 144.64-23.58 145.28-20.48L145.28-20.48 141.32-20Q141.05-21.75 139.59-22.66 138.12-23.56 135.22-23.56L135.22-23.56Q129.24-23.56 129.24-19.87L129.24-19.87Q129.24-18.41 130.25-17.53 131.26-16.65 133.51-16.11L133.51-16.11 136.42-15.36Q140.4-14.38 142.14-13.43 143.89-12.48 144.89-11.05 145.89-9.62 145.89-7.54ZM176.89-2.71L176.89-2.71Q177.53-2.71 178.33-2.88L178.33-2.88 178.33-0.15Q176.67 0.24 174.94 0.24L174.94 0.24Q172.5 0.24 171.39-1.04 170.28-2.32 170.13-5.05L170.13-5.05 169.98-5.05Q168.4-2.1 166.24-0.81 164.07 0.49 160.9 0.49L160.9 0.49Q157.04 0.49 155.09-1.61 153.14-3.71 153.14-7.37L153.14-7.37Q153.14-15.89 164.22-16.02L164.22-16.02 169.98-16.11 169.98-17.55Q169.98-20.75 168.69-22.16 167.39-23.56 164.56-23.56L164.56-23.56Q161.68-23.56 160.41-22.53 159.14-21.51 158.9-19.36L158.9-19.36 154.31-19.78Q155.43-26.9 164.64-26.9L164.64-26.9Q169.52-26.9 171.97-24.62 174.43-22.34 174.43-18.02L174.43-18.02 174.43-6.64Q174.43-4.69 174.94-3.7 175.45-2.71 176.89-2.71ZM162.02-2.86L162.02-2.86Q164.37-2.86 166.17-3.98 167.98-5.1 168.98-6.98 169.98-8.86 169.98-10.86L169.98-10.86 169.98-13.04 165.34-12.94Q162.46-12.89 160.95-12.3 159.44-11.72 158.59-10.51 157.75-9.3 157.75-7.3L157.75-7.3Q157.75-5.3 158.84-4.08 159.92-2.86 162.02-2.86ZM236.9-17.21L236.9-3.25Q231.31 0.49 225.62 0.49L225.62 0.49Q219.51 0.49 216.14-4.04 212.78-8.57 212.78-16.63L212.78-16.63Q212.78-25.1 216-29.27 219.22-33.45 225.69-33.45L225.69-33.45Q234.14-33.45 236.95-25.37L236.95-25.37 232.77-24Q230.82-29.64 225.74-29.64L225.74-29.64Q221.61-29.64 219.65-26.56 217.68-23.49 217.68-16.63L217.68-16.63Q217.68-3.3 226.01-3.3L226.01-3.3Q227.67-3.3 229.45-3.81 231.23-4.32 232.36-5.1L232.36-5.1 232.36-13.31 225.2-13.31 225.2-17.21 236.9-17.21ZM257.99-36.23L257.99-3.47 267.27-3.47 267.27 0 243.29 0 243.29-3.47 253.59-3.47 253.59-32.76 246.54-32.76 246.54-36.23 257.99-36.23ZM296.8-13.23L296.8-13.23Q296.8-6.57 293.74-3.04 290.68 0.49 284.89 0.49L284.89 0.49Q279.23 0.49 276.21-3.08 273.2-6.64 273.2-13.23L273.2-13.23Q273.2-20.04 276.28-23.47 279.37-26.9 285.04-26.9L285.04-26.9Q290.99-26.9 293.9-23.51 296.8-20.12 296.8-13.23ZM292.19-13.23L292.19-13.23Q292.19-18.48 290.52-21.07 288.84-23.66 285.11-23.66L285.11-23.66Q281.33-23.66 279.57-21.02 277.81-18.38 277.81-13.23L277.81-13.23Q277.81-8.11 279.57-5.43 281.33-2.76 284.84-2.76L284.84-2.76Q288.72-2.76 290.46-5.37 292.19-7.98 292.19-13.23ZM326.64-13.33L326.64-13.33Q326.64-6.4 324.16-2.95 321.68 0.49 317.06 0.49L317.06 0.49Q311.11 0.49 308.91-4L308.91-4 308.86-4Q308.86-2.83 308.78-1.56 308.69-0.29 308.64 0L308.64 0 304.39 0Q304.54-1.32 304.54-5.44L304.54-5.44 304.54-36.23 308.93-36.23 308.93-25.9Q308.93-24.32 308.84-22.07L308.84-22.07 308.93-22.07Q311.16-26.95 317.09-26.95L317.09-26.95Q326.64-26.95 326.64-13.33ZM322.09-13.18L322.09-13.18Q322.09-18.65 320.59-21.11 319.09-23.56 315.89-23.56L315.89-23.56Q312.26-23.56 310.6-20.89 308.93-18.21 308.93-12.79L308.93-12.79Q308.93-7.69 310.55-5.22 312.16-2.76 315.84-2.76L315.84-2.76Q319.14-2.76 320.62-5.31 322.09-7.86 322.09-13.18ZM356.91-2.71L356.91-2.71Q357.54-2.71 358.35-2.88L358.35-2.88 358.35-0.15Q356.69 0.24 354.95 0.24L354.95 0.24Q352.51 0.24 351.4-1.04 350.29-2.32 350.14-5.05L350.14-5.05 350-5.05Q348.41-2.1 346.25-0.81 344.09 0.49 340.91 0.49L340.91 0.49Q337.06 0.49 335.1-1.61 333.15-3.71 333.15-7.37L333.15-7.37Q333.15-15.89 344.24-16.02L344.24-16.02 350-16.11 350-17.55Q350-20.75 348.7-22.16 347.41-23.56 344.58-23.56L344.58-23.56Q341.7-23.56 340.43-22.53 339.16-21.51 338.91-19.36L338.91-19.36 334.32-19.78Q335.45-26.9 344.65-26.9L344.65-26.9Q349.53-26.9 351.99-24.62 354.44-22.34 354.44-18.02L354.44-18.02 354.44-6.64Q354.44-4.69 354.95-3.7 355.47-2.71 356.91-2.71ZM342.04-2.86L342.04-2.86Q344.38-2.86 346.19-3.98 347.99-5.1 349-6.98 350-8.86 350-10.86L350-10.86 350-13.04 345.36-12.94Q342.48-12.89 340.96-12.3 339.45-11.72 338.61-10.51 337.77-9.3 337.77-7.3L337.77-7.3Q337.77-5.3 338.85-4.08 339.94-2.86 342.04-2.86ZM378-36.23L378-3.47 387.27-3.47 387.27 0 363.3 0 363.3-3.47 373.6-3.47 373.6-32.76 366.55-32.76 366.55-36.23 378-36.23Z" opacity="1" transform="matrix(1,0,0,1,0,0)" fill="#9da27e" class="wordmark-text-0" data-fill-palette-color="primary" id="text-0"></path></svg></g></svg></g><g transform="matrix(1,0,0,1,150.5618805749312,46.947691252590985)"><svg viewBox="0 0 94.39623885013756 17.471367437108924" height="17.471367437108924" width="94.39623885013756"><g transform="matrix(1,0,0,1,8,0)"><svg width="78.39623885013756" viewBox="0.4 -37.7 217.82999999999998 48.550000000000004" height="17.471367437108924" data-palette-color="#9da27e"><path d="M0.4-34.55L21.95-34.55 21.25-29.55 14.15-29.55 14.15 0 7.8 0 7.8-29.55 0.4-29.55 0.4-34.55ZM43.7-13.85Q43.7-13.4 43.55-11.3L43.55-11.3 29.9-11.3Q30.1-7.2 31.32-5.58 32.55-3.95 34.8-3.95L34.8-3.95Q36.35-3.95 37.6-4.48 38.85-5 40.3-6.15L40.3-6.15 42.85-2.65Q39.35 0.75 34.45 0.75L34.45 0.75Q29.25 0.75 26.47-2.85 23.7-6.45 23.7-13L23.7-13Q23.7-19.55 26.35-23.35 29-27.15 33.85-27.15L33.85-27.15Q38.5-27.15 41.1-23.78 43.7-20.4 43.7-13.85L43.7-13.85ZM37.7-15.3L37.7-15.65Q37.7-19.4 36.8-21.13 35.9-22.85 33.9-22.85L33.9-22.85Q32.05-22.85 31.07-21.18 30.1-19.5 29.9-15.3L29.9-15.3 37.7-15.3ZM57.5-27.15Q59.65-27.15 61.4-26.43 63.15-25.7 64.75-24.15L64.75-24.15 62.09-20.65Q61-21.55 60.02-21.98 59.05-22.4 57.9-22.4L57.9-22.4Q55.65-22.4 54.5-20.28 53.35-18.15 53.35-13.1L53.35-13.1Q53.35-8.2 54.52-6.2 55.7-4.2 57.9-4.2L57.9-4.2Q59-4.2 59.9-4.6 60.8-5 62-5.85L62-5.85 64.75-2.3Q61.55 0.75 57.6 0.75L57.6 0.75Q52.5 0.75 49.67-2.73 46.85-6.2 46.85-13L46.85-13Q46.85-17.4 48.15-20.6 49.45-23.8 51.87-25.48 54.3-27.15 57.5-27.15L57.5-27.15ZM80.14-27.15Q82.99-27.15 84.64-25.1 86.29-23.05 86.29-19.6L86.29-19.6 86.29 0 80.14 0 80.14-18.9Q80.14-20.8 79.62-21.63 79.09-22.45 78.09-22.45L78.09-22.45Q75.99-22.45 73.94-18.5L73.94-18.5 73.94 0 67.79 0 67.79-37 73.94-37.65 73.94-23.3Q75.19-25.25 76.67-26.2 78.14-27.15 80.14-27.15L80.14-27.15ZM104.19-27.15Q107.04-27.15 108.69-25.1 110.34-23.05 110.34-19.6L110.34-19.6 110.34 0 104.19 0 104.19-18.9Q104.19-20.8 103.67-21.63 103.14-22.45 102.14-22.45L102.14-22.45Q100.04-22.45 97.99-18.5L97.99-18.5 97.99 0 91.84 0 91.84-26.45 97.19-26.45 97.64-23Q98.99-25.1 100.52-26.13 102.04-27.15 104.19-27.15L104.19-27.15ZM125.29-27.15Q130.29-27.15 133.06-23.65 135.84-20.15 135.84-13.25L135.84-13.25Q135.84-6.65 133.04-2.95 130.24 0.75 125.29 0.75L125.29 0.75Q120.34 0.75 117.54-2.88 114.74-6.5 114.74-13.25L114.74-13.25Q114.74-19.95 117.54-23.55 120.34-27.15 125.29-27.15L125.29-27.15ZM125.29-22.5Q123.14-22.5 122.14-20.38 121.14-18.25 121.14-13.25L121.14-13.25Q121.14-8.2 122.14-6.08 123.14-3.95 125.29-3.95L125.29-3.95Q127.44-3.95 128.44-6.08 129.44-8.2 129.44-13.25L129.44-13.25Q129.44-18.3 128.44-20.4 127.44-22.5 125.29-22.5L125.29-22.5ZM145.99 0.75Q143.29 0.75 141.71-0.93 140.14-2.6 140.14-5.4L140.14-5.4 140.14-37.05 146.29-37.7 146.29-5.65Q146.29-5 146.59-4.6 146.89-4.2 147.49-4.2L147.49-4.2Q147.84-4.2 148.16-4.3 148.49-4.4 148.59-4.4L148.59-4.4 149.79-0.2Q148.09 0.75 145.99 0.75L145.99 0.75ZM162.23-27.15Q167.23-27.15 170.01-23.65 172.78-20.15 172.78-13.25L172.78-13.25Q172.78-6.65 169.98-2.95 167.18 0.75 162.23 0.75L162.23 0.75Q157.28 0.75 154.48-2.88 151.68-6.5 151.68-13.25L151.68-13.25Q151.68-19.95 154.48-23.55 157.28-27.15 162.23-27.15L162.23-27.15ZM162.23-22.5Q160.08-22.5 159.08-20.38 158.08-18.25 158.08-13.25L158.08-13.25Q158.08-8.2 159.08-6.08 160.08-3.95 162.23-3.95L162.23-3.95Q164.38-3.95 165.38-6.08 166.38-8.2 166.38-13.25L166.38-13.25Q166.38-18.3 165.38-20.4 164.38-22.5 162.23-22.5L162.23-22.5ZM195.28-29.85L196.83-25.1Q195.78-24.6 194.31-24.4 192.83-24.2 190.63-24.2L190.63-24.2Q192.73-23.2 193.76-21.53 194.78-19.85 194.78-17.4L194.78-17.4Q194.78-13.4 192.33-10.95 189.88-8.5 185.68-8.5L185.68-8.5Q184.43-8.5 183.13-8.9L183.13-8.9Q182.23-8.15 182.23-6.85L182.23-6.85Q182.23-5.85 182.78-5.35 183.33-4.85 184.83-4.85L184.83-4.85 187.63-4.85Q191.63-4.85 193.98-2.78 196.33-0.7 196.33 2.5L196.33 2.5Q196.33 6.3 193.41 8.58 190.48 10.85 185.08 10.85L185.08 10.85Q179.38 10.85 177.11 8.75 174.83 6.65 174.83 2.6L174.83 2.6 180.28 2.6Q180.28 4.75 181.28 5.65 182.28 6.55 185.13 6.55L185.13 6.55Q187.88 6.55 189.03 5.6 190.18 4.65 190.18 2.9L190.18 2.9Q190.18 1.2 189.23 0.4 188.28-0.4 186.28-0.4L186.28-0.4 184.38-0.4Q180.58-0.4 178.83-1.75 177.08-3.1 177.08-5.45L177.08-5.45Q177.08-6.8 177.81-8.03 178.53-9.25 179.78-10.2L179.78-10.2Q177.73-11.5 176.78-13.3 175.83-15.1 175.83-17.7L175.83-17.7Q175.83-22.05 178.43-24.58 181.03-27.1 185.43-27.1L185.43-27.1Q188.68-27.1 190.81-27.8 192.93-28.5 195.28-29.85L195.28-29.85ZM185.43-23Q183.68-23 182.78-21.75 181.88-20.5 181.88-17.8L181.88-17.8Q181.88-15.25 182.78-13.88 183.68-12.5 185.38-12.5L185.38-12.5Q187.13-12.5 187.98-13.73 188.83-14.95 188.83-17.85L188.83-17.85Q188.83-20.55 188.01-21.78 187.18-23 185.43-23L185.43-23ZM218.23-26.45L211.23 0.1Q209.93 4.9 207.03 7.65 204.13 10.4 199.28 10.85L199.28 10.85 198.58 6.5Q201.73 5.85 203.3 4.42 204.88 3 205.78 0L205.78 0 203.48 0 196.78-26.45 203.03-26.45 207.43-4.1 212.13-26.45 218.23-26.45Z" opacity="1" transform="matrix(1,0,0,1,0,0)" fill="#9da27e" class="slogan-text-1" data-fill-palette-color="secondary" id="text-1"></path></svg></g></svg></g></svg></g></svg></g><g><svg viewBox="0 0 100.20335350274514 100.20335350274514" height="100.20335350274514" width="100.20335350274514"><g><svg></svg></g><g id="icon-0"><svg viewBox="0 0 100.20335350274514 100.20335350274514" height="100.20335350274514" width="100.20335350274514"><g><path d="M0 50.102c0-27.67 22.431-50.102 50.102-50.102 27.67 0 50.102 22.431 50.101 50.102 0 27.67-22.431 50.102-50.101 50.101-27.67 0-50.102-22.431-50.102-50.101zM50.102 96.778c25.779 0 46.676-20.898 46.676-46.676 0-25.779-20.898-46.676-46.676-46.677-25.779 0-46.676 20.898-46.677 46.677 0 25.779 20.898 46.676 46.677 46.676z" data-fill-palette-color="tertiary" fill="#9da27e" stroke="transparent"></path></g><g transform="matrix(1,0,0,1,34.21153400656555,22.713684058528713)"><svg viewBox="0 0 31.780285489614045 54.77598538568772" height="54.77598538568772" width="31.780285489614045"><g><svg xmlns="http://www.w3.org/2000/svg" xmlns:xlink="http://www.w3.org/1999/xlink" version="1.1" x="0" y="0" viewBox="21.679106830508616 1 56.85827385947762 98" enable-background="new 0 0 100 100" xml:space="preserve" height="54.77598538568772" width="31.780285489614045" class="icon-dxe-0" data-fill-palette-color="accent" id="dxe-0"><g fill="#91abbb" data-fill-palette-color="accent"><path fill-rule="evenodd" clip-rule="evenodd" d="M30.545 28.822C29.38 36.039 30.875 43.672 37.045 47.863 30.758 19.81 45.756 8.664 59.646 1 43.466 24.046 76.542 24.644 78.423 51.13 80.028 73.71 64.507 91.317 46.639 99 46.845 76.175 24.089 73.067 21.801 54.397 20.905 47.094 25.062 33.766 30.545 28.822" fill="#91abbb" data-fill-palette-color="accent"></path></g></svg></g></svg></g></svg></g></svg></g></svg></g><defs></defs></svg><rect width="395.52" height="77.15749379063509" fill="none" stroke="none" visibility="hidden"></rect></g></svg></g></svg>